<mxfile host="Electron" modified="2023-12-12T05:30:49.263Z" agent="Mozilla/5.0 (Windows NT 10.0; Win64; x64) AppleWebKit/537.36 (KHTML, like Gecko) draw.io/22.0.3 Chrome/114.0.5735.289 Electron/25.8.4 Safari/537.36" etag="tAgGnr_H2RDEaOPlhmVC" version="22.0.3" type="device">
  <diagram name="Page-1" id="8378b5f6-a2b2-b727-a746-972ab9d02e00">
    <mxGraphModel dx="2026" dy="1369" grid="1" gridSize="10" guides="1" tooltips="1" connect="0" arrows="1" fold="1" page="1" pageScale="1.5" pageWidth="1169" pageHeight="827" background="none" math="0" shadow="0">
      <root>
        <mxCell id="0" />
        <mxCell id="1" parent="0" />
        <mxCell id="_caUWjipLXWsvfCWarUt-362" value="" style="rounded=1;whiteSpace=wrap;html=1;fillColor=#b1ddf0;strokeColor=#10739e;opacity=40;" vertex="1" parent="1">
          <mxGeometry x="60" y="190" width="1080" height="650" as="geometry" />
        </mxCell>
        <mxCell id="63" value="1" style="strokeColor=#DEEDFF;fillColor=#ADC3D9;opacity=50;" parent="1" vertex="1">
          <mxGeometry x="86.5" y="380" width="40" height="20" as="geometry" />
        </mxCell>
        <mxCell id="64" value="Полная продолжительность работы над проектом" style="align=left;strokeColor=#DEEDFF;fillColor=#ADC3D9;opacity=50;" parent="1" vertex="1">
          <mxGeometry x="126.5" y="380" width="320" height="20" as="geometry" />
        </mxCell>
        <mxCell id="65" value="19 дней" style="strokeColor=#DEEDFF;fillColor=#ADC3D9;opacity=50;" parent="1" vertex="1">
          <mxGeometry x="446.50000000000176" y="380" width="80.00000000000028" height="20" as="geometry" />
        </mxCell>
        <mxCell id="66" value="04.12.2023" style="strokeColor=#DEEDFF;fillColor=#ADC3D9;opacity=50;" parent="1" vertex="1">
          <mxGeometry x="526.500000000002" y="380" width="80.00000000000028" height="20" as="geometry" />
        </mxCell>
        <mxCell id="67" value="22.12.2023" style="strokeColor=#DEEDFF;fillColor=#ADC3D9;opacity=50;" parent="1" vertex="1">
          <mxGeometry x="606.5000000000016" y="380.0000000000002" width="80.00000000000028" height="20" as="geometry" />
        </mxCell>
        <mxCell id="68" value="" style="strokeColor=#DEEDFF" parent="1" vertex="1">
          <mxGeometry x="686.500000000002" y="381.0000000000002" width="20" height="420" as="geometry" />
        </mxCell>
        <mxCell id="69" value="2" style="strokeColor=#DEEDFF;fillColor=#CCE5FF;opacity=50;" parent="1" vertex="1">
          <mxGeometry x="86.50000000000026" y="399.9999999999999" width="40" height="20" as="geometry" />
        </mxCell>
        <mxCell id="70" value="Спринт 1" style="align=left;strokeColor=#DEEDFF;fillColor=#CCE5FF;opacity=50;" parent="1" vertex="1">
          <mxGeometry x="126.50000000000026" y="399.9999999999999" width="319.9999999999998" height="20" as="geometry" />
        </mxCell>
        <mxCell id="71" value="5 дней" style="strokeColor=#DEEDFF;fillColor=#CCE5FF;opacity=50;" parent="1" vertex="1">
          <mxGeometry x="446.500000000002" y="399.99999999999983" width="80.00000000000028" height="20" as="geometry" />
        </mxCell>
        <mxCell id="72" value="04.12.2023" style="strokeColor=#DEEDFF;fillColor=#CCE5FF;opacity=50;" parent="1" vertex="1">
          <mxGeometry x="526.5000000000023" y="399.99999999999983" width="80.00000000000028" height="20" as="geometry" />
        </mxCell>
        <mxCell id="73" value="08.12.2023" style="strokeColor=#DEEDFF;fillColor=#CCE5FF;opacity=50;" parent="1" vertex="1">
          <mxGeometry x="606.5000000000018" y="400.0000000000001" width="80.00000000000028" height="20" as="geometry" />
        </mxCell>
        <mxCell id="74" value="3" style="strokeColor=#DEEDFF" parent="1" vertex="1">
          <mxGeometry x="86.50000000000027" y="419.9999999999998" width="40" height="20" as="geometry" />
        </mxCell>
        <mxCell id="75" value="Постановка цели" style="align=left;strokeColor=#DEEDFF" parent="1" vertex="1">
          <mxGeometry x="126.50000000000027" y="419.9999999999998" width="319.9999999999997" height="20.000000000000014" as="geometry" />
        </mxCell>
        <mxCell id="76" value="1 день" style="strokeColor=#DEEDFF" parent="1" vertex="1">
          <mxGeometry x="446.500000000002" y="419.9999999999997" width="80.00000000000028" height="20" as="geometry" />
        </mxCell>
        <mxCell id="77" value="04.12.2023" style="strokeColor=#DEEDFF" parent="1" vertex="1">
          <mxGeometry x="526.5000000000023" y="419.9999999999997" width="80.00000000000028" height="20" as="geometry" />
        </mxCell>
        <mxCell id="78" value="04.12.2023" style="strokeColor=#DEEDFF" parent="1" vertex="1">
          <mxGeometry x="606.5000000000018" y="420" width="80.00000000000028" height="20" as="geometry" />
        </mxCell>
        <mxCell id="79" value="4" style="strokeColor=#DEEDFF" parent="1" vertex="1">
          <mxGeometry x="86.5" y="440.00000000000017" width="40" height="20" as="geometry" />
        </mxCell>
        <mxCell id="80" value="Выбор модели" style="align=left;strokeColor=#DEEDFF" parent="1" vertex="1">
          <mxGeometry x="126.5" y="440.00000000000017" width="320" height="20" as="geometry" />
        </mxCell>
        <mxCell id="81" value="1 день" style="strokeColor=#DEEDFF" parent="1" vertex="1">
          <mxGeometry x="446.5000000000017" y="440.0000000000001" width="80.00000000000028" height="20" as="geometry" />
        </mxCell>
        <mxCell id="82" value="05.12.2023" style="strokeColor=#DEEDFF" parent="1" vertex="1">
          <mxGeometry x="526.500000000002" y="440.0000000000001" width="80.00000000000028" height="20" as="geometry" />
        </mxCell>
        <mxCell id="83" value="05.12.2023" style="strokeColor=#DEEDFF" parent="1" vertex="1">
          <mxGeometry x="606.5000000000015" y="440.0000000000004" width="80.00000000000028" height="20" as="geometry" />
        </mxCell>
        <mxCell id="84" value="5" style="strokeColor=#DEEDFF" parent="1" vertex="1">
          <mxGeometry x="86.49999999999991" y="460.00000000000017" width="40" height="20" as="geometry" />
        </mxCell>
        <mxCell id="85" value="Разработка плана" style="align=left;strokeColor=#DEEDFF" parent="1" vertex="1">
          <mxGeometry x="126.49999999999991" y="460.00000000000017" width="320.0000000000001" height="20" as="geometry" />
        </mxCell>
        <mxCell id="86" value="1 день" style="strokeColor=#DEEDFF" parent="1" vertex="1">
          <mxGeometry x="446.50000000000165" y="460.0000000000001" width="80.00000000000028" height="20" as="geometry" />
        </mxCell>
        <mxCell id="87" value="05.12.2023" style="strokeColor=#DEEDFF" parent="1" vertex="1">
          <mxGeometry x="526.5000000000019" y="460.0000000000001" width="80.00000000000028" height="20" as="geometry" />
        </mxCell>
        <mxCell id="88" value="05.12.2023" style="strokeColor=#DEEDFF" parent="1" vertex="1">
          <mxGeometry x="606.5000000000015" y="460.0000000000004" width="80.00000000000028" height="20" as="geometry" />
        </mxCell>
        <mxCell id="89" value="6" style="strokeColor=#DEEDFF" parent="1" vertex="1">
          <mxGeometry x="86.4999999999999" y="480.00000000000045" width="40" height="20" as="geometry" />
        </mxCell>
        <mxCell id="90" value="Подготовка бэклога" style="align=left;strokeColor=#DEEDFF" parent="1" vertex="1">
          <mxGeometry x="126.4999999999999" y="480.00000000000045" width="320.0000000000001" height="20" as="geometry" />
        </mxCell>
        <mxCell id="91" value="1 день" style="strokeColor=#DEEDFF" parent="1" vertex="1">
          <mxGeometry x="446.50000000000165" y="480.00000000000034" width="80.00000000000028" height="20" as="geometry" />
        </mxCell>
        <mxCell id="92" value="06.12.2023" style="strokeColor=#DEEDFF" parent="1" vertex="1">
          <mxGeometry x="526.5000000000019" y="480.00000000000034" width="80.00000000000028" height="20" as="geometry" />
        </mxCell>
        <mxCell id="93" value="06.12.2023" style="strokeColor=#DEEDFF" parent="1" vertex="1">
          <mxGeometry x="606.5000000000015" y="480.0000000000007" width="80.00000000000028" height="20" as="geometry" />
        </mxCell>
        <mxCell id="94" value="7" style="strokeColor=#DEEDFF" parent="1" vertex="1">
          <mxGeometry x="86.50000000000063" y="500.0000000000007" width="40" height="20" as="geometry" />
        </mxCell>
        <mxCell id="95" value="Определение сотава команды и компетенций" style="align=left;strokeColor=#DEEDFF" parent="1" vertex="1">
          <mxGeometry x="126.50000000000063" y="500.0000000000007" width="319.9999999999994" height="20" as="geometry" />
        </mxCell>
        <mxCell id="96" value="1 день" style="strokeColor=#DEEDFF" parent="1" vertex="1">
          <mxGeometry x="446.5000000000024" y="500.0000000000007" width="80.00000000000028" height="20" as="geometry" />
        </mxCell>
        <mxCell id="97" value="07.12.2023" style="strokeColor=#DEEDFF" parent="1" vertex="1">
          <mxGeometry x="526.5000000000027" y="500.0000000000007" width="80.00000000000028" height="20" as="geometry" />
        </mxCell>
        <mxCell id="98" value="07.12.2023" style="strokeColor=#DEEDFF" parent="1" vertex="1">
          <mxGeometry x="606.5000000000022" y="500.0000000000009" width="80.00000000000028" height="20" as="geometry" />
        </mxCell>
        <mxCell id="99" value="8" style="strokeColor=#DEEDFF" parent="1" vertex="1">
          <mxGeometry x="86.50000000000064" y="520.0000000000006" width="40" height="20" as="geometry" />
        </mxCell>
        <mxCell id="100" value="Распределение задач" style="align=left;strokeColor=#DEEDFF" parent="1" vertex="1">
          <mxGeometry x="126.50000000000064" y="520.0000000000006" width="319.9999999999994" height="20" as="geometry" />
        </mxCell>
        <mxCell id="101" value="1 день" style="strokeColor=#DEEDFF" parent="1" vertex="1">
          <mxGeometry x="446.5000000000024" y="520.0000000000006" width="80.00000000000028" height="20" as="geometry" />
        </mxCell>
        <mxCell id="102" value="08.12.2023" style="strokeColor=#DEEDFF" parent="1" vertex="1">
          <mxGeometry x="526.5000000000027" y="520.0000000000006" width="80.00000000000028" height="20" as="geometry" />
        </mxCell>
        <mxCell id="103" value="08.12.2023" style="strokeColor=#DEEDFF" parent="1" vertex="1">
          <mxGeometry x="606.5000000000022" y="520.0000000000008" width="80.00000000000028" height="20" as="geometry" />
        </mxCell>
        <mxCell id="104" value="9" style="strokeColor=#DEEDFF;fillColor=#CCE5FF;opacity=50;" parent="1" vertex="1">
          <mxGeometry x="86.50000000000037" y="540.000000000001" width="40" height="20" as="geometry" />
        </mxCell>
        <mxCell id="105" value="Спринт 2" style="align=left;strokeColor=#DEEDFF;fillColor=#CCE5FF;opacity=50;" parent="1" vertex="1">
          <mxGeometry x="126.50000000000037" y="540.000000000001" width="319.99999999999966" height="20.00000000000003" as="geometry" />
        </mxCell>
        <mxCell id="106" value="5 дней" style="strokeColor=#DEEDFF;fillColor=#CCE5FF;opacity=50;" parent="1" vertex="1">
          <mxGeometry x="446.5000000000021" y="540.0000000000009" width="80.00000000000028" height="20" as="geometry" />
        </mxCell>
        <mxCell id="107" value="11.12.2023" style="strokeColor=#DEEDFF;fillColor=#CCE5FF;opacity=50;" parent="1" vertex="1">
          <mxGeometry x="526.5000000000025" y="540.0000000000009" width="80.00000000000028" height="20" as="geometry" />
        </mxCell>
        <mxCell id="108" value="15.12.2023" style="strokeColor=#DEEDFF;fillColor=#CCE5FF;opacity=50;" parent="1" vertex="1">
          <mxGeometry x="606.5000000000018" y="540.0000000000013" width="80.00000000000028" height="20" as="geometry" />
        </mxCell>
        <mxCell id="109" value="10" style="strokeColor=#DEEDFF" parent="1" vertex="1">
          <mxGeometry x="86.50000000000028" y="560.000000000001" width="40" height="20" as="geometry" />
        </mxCell>
        <mxCell id="110" value="Разработка web-сервиса" style="align=left;strokeColor=#DEEDFF" parent="1" vertex="1">
          <mxGeometry x="126.50000000000028" y="560.000000000001" width="319.9999999999997" height="20" as="geometry" />
        </mxCell>
        <mxCell id="111" value="1 день" style="strokeColor=#DEEDFF" parent="1" vertex="1">
          <mxGeometry x="446.50000000000205" y="560.0000000000009" width="80.00000000000028" height="20" as="geometry" />
        </mxCell>
        <mxCell id="112" value="11.12.2023" style="strokeColor=#DEEDFF" parent="1" vertex="1">
          <mxGeometry x="526.5000000000023" y="560.0000000000009" width="80.00000000000028" height="20" as="geometry" />
        </mxCell>
        <mxCell id="113" value="11.12.2023" style="strokeColor=#DEEDFF" parent="1" vertex="1">
          <mxGeometry x="606.5000000000018" y="560.0000000000013" width="80.00000000000028" height="20" as="geometry" />
        </mxCell>
        <mxCell id="114" value="11" style="strokeColor=#DEEDFF" parent="1" vertex="1">
          <mxGeometry x="86.50000000000027" y="580.0000000000013" width="40" height="20" as="geometry" />
        </mxCell>
        <mxCell id="115" value="Тестрирование сервиса" style="align=left;strokeColor=#DEEDFF" parent="1" vertex="1">
          <mxGeometry x="126.50000000000027" y="580.0000000000013" width="319.9999999999997" height="20" as="geometry" />
        </mxCell>
        <mxCell id="116" value="1 день" style="strokeColor=#DEEDFF" parent="1" vertex="1">
          <mxGeometry x="446.50000000000205" y="580.0000000000011" width="80.00000000000028" height="20" as="geometry" />
        </mxCell>
        <mxCell id="117" value="11.12.2023" style="strokeColor=#DEEDFF" parent="1" vertex="1">
          <mxGeometry x="526.5000000000023" y="580.0000000000011" width="80.00000000000028" height="20" as="geometry" />
        </mxCell>
        <mxCell id="118" value="11.12.2023" style="strokeColor=#DEEDFF" parent="1" vertex="1">
          <mxGeometry x="606.5000000000018" y="580.0000000000015" width="80.00000000000028" height="20" as="geometry" />
        </mxCell>
        <mxCell id="119" value="12" style="strokeColor=#DEEDFF" parent="1" vertex="1">
          <mxGeometry x="86.49999999999997" y="600.0000000000016" width="40" height="20" as="geometry" />
        </mxCell>
        <mxCell id="120" value="Подготовка документации" style="align=left;strokeColor=#DEEDFF" parent="1" vertex="1">
          <mxGeometry x="126.49999999999997" y="600.0000000000016" width="320" height="20" as="geometry" />
        </mxCell>
        <mxCell id="121" value="1 день" style="strokeColor=#DEEDFF" parent="1" vertex="1">
          <mxGeometry x="446.5000000000017" y="600.0000000000015" width="80.00000000000028" height="20" as="geometry" />
        </mxCell>
        <mxCell id="122" value="12.12.2023" style="strokeColor=#DEEDFF" parent="1" vertex="1">
          <mxGeometry x="526.500000000002" y="600.0000000000015" width="80.00000000000028" height="20" as="geometry" />
        </mxCell>
        <mxCell id="123" value="12.12.2023" style="strokeColor=#DEEDFF" parent="1" vertex="1">
          <mxGeometry x="606.5000000000015" y="600.0000000000018" width="80.00000000000028" height="20" as="geometry" />
        </mxCell>
        <mxCell id="134" value="13" style="opacity=50;" parent="1" vertex="1">
          <mxGeometry x="86.49999999999963" y="621.0000000000018" width="40" height="20" as="geometry" />
        </mxCell>
        <mxCell id="135" value="Подготовка тестового окружения и деплой сервиса" style="align=left;opacity=50;" parent="1" vertex="1">
          <mxGeometry x="126.49999999999963" y="621.0000000000018" width="320.00000000000034" height="20" as="geometry" />
        </mxCell>
        <mxCell id="136" value="2 дня" style="opacity=50;" parent="1" vertex="1">
          <mxGeometry x="446.50000000000136" y="621.0000000000018" width="80.00000000000028" height="20" as="geometry" />
        </mxCell>
        <mxCell id="137" value="13.12.2023" style="opacity=50;" parent="1" vertex="1">
          <mxGeometry x="526.5000000000016" y="621.0000000000018" width="80.00000000000028" height="20" as="geometry" />
        </mxCell>
        <mxCell id="138" value="14.12.2023" style="opacity=50;" parent="1" vertex="1">
          <mxGeometry x="606.5000000000011" y="621.000000000002" width="80.00000000000028" height="20" as="geometry" />
        </mxCell>
        <mxCell id="139" value="14" style="opacity=50;" parent="1" vertex="1">
          <mxGeometry x="86.49999999999962" y="641.000000000002" width="40" height="20" as="geometry" />
        </mxCell>
        <mxCell id="140" value="Оценка MVP" style="align=left;opacity=50;" parent="1" vertex="1">
          <mxGeometry x="126.49999999999962" y="641.000000000002" width="320.0000000000004" height="20" as="geometry" />
        </mxCell>
        <mxCell id="141" value="1 день" style="opacity=50;" parent="1" vertex="1">
          <mxGeometry x="446.50000000000136" y="641.000000000002" width="80.00000000000028" height="20" as="geometry" />
        </mxCell>
        <mxCell id="142" value="15.12.2023" style="opacity=50;" parent="1" vertex="1">
          <mxGeometry x="526.5000000000016" y="641.000000000002" width="80.00000000000028" height="20" as="geometry" />
        </mxCell>
        <mxCell id="143" value="15.12.2023" style="opacity=50;" parent="1" vertex="1">
          <mxGeometry x="606.5000000000011" y="641.0000000000023" width="80.00000000000028" height="20" as="geometry" />
        </mxCell>
        <mxCell id="144" value="15" style="strokeColor=#DEEDFF;fillColor=#cce5ff;opacity=50;" parent="1" vertex="1">
          <mxGeometry x="86.500000000001" y="661.0000000000023" width="40" height="20" as="geometry" />
        </mxCell>
        <mxCell id="145" value="Спринт 3" style="align=left;strokeColor=#DEEDFF;fillColor=#cce5ff;opacity=50;" parent="1" vertex="1">
          <mxGeometry x="126.500000000001" y="661.0000000000023" width="319.999999999999" height="20" as="geometry" />
        </mxCell>
        <mxCell id="146" value="5 дней" style="strokeColor=#DEEDFF;fillColor=#cce5ff;opacity=50;" parent="1" vertex="1">
          <mxGeometry x="446.50000000000273" y="661.0000000000023" width="80.00000000000028" height="20" as="geometry" />
        </mxCell>
        <mxCell id="147" value="18.12.2023" style="strokeColor=#DEEDFF;fillColor=#cce5ff;opacity=50;" parent="1" vertex="1">
          <mxGeometry x="526.500000000003" y="661.0000000000023" width="80.00000000000028" height="20" as="geometry" />
        </mxCell>
        <mxCell id="148" value="22.12.2023" style="strokeColor=#DEEDFF;fillColor=#cce5ff;opacity=50;" parent="1" vertex="1">
          <mxGeometry x="606.5000000000025" y="661.0000000000025" width="80.00000000000028" height="20" as="geometry" />
        </mxCell>
        <mxCell id="149" value="16" style="strokeColor=#DEEDFF" parent="1" vertex="1">
          <mxGeometry x="86.50000000000102" y="681.0000000000022" width="40" height="20" as="geometry" />
        </mxCell>
        <mxCell id="150" value="Доработка сервиса" style="align=left;strokeColor=#DEEDFF" parent="1" vertex="1">
          <mxGeometry x="126.50000000000102" y="681.0000000000022" width="319.999999999999" height="20" as="geometry" />
        </mxCell>
        <mxCell id="151" value="1 день" style="strokeColor=#DEEDFF" parent="1" vertex="1">
          <mxGeometry x="446.50000000000273" y="681.000000000002" width="80.00000000000028" height="20" as="geometry" />
        </mxCell>
        <mxCell id="152" value="18.12.2023" style="strokeColor=#DEEDFF" parent="1" vertex="1">
          <mxGeometry x="526.500000000003" y="681.000000000002" width="80.00000000000028" height="20" as="geometry" />
        </mxCell>
        <mxCell id="153" value="18.12.2023" style="strokeColor=#DEEDFF" parent="1" vertex="1">
          <mxGeometry x="606.5000000000025" y="681.0000000000024" width="80.00000000000028" height="20" as="geometry" />
        </mxCell>
        <mxCell id="154" value="17" style="strokeColor=#DEEDFF" parent="1" vertex="1">
          <mxGeometry x="86.50000000000074" y="701.0000000000025" width="40" height="20" as="geometry" />
        </mxCell>
        <mxCell id="155" value="Тестирование внесенных изменений" style="align=left;strokeColor=#DEEDFF" parent="1" vertex="1">
          <mxGeometry x="126.50000000000074" y="701.0000000000025" width="319.99999999999926" height="20" as="geometry" />
        </mxCell>
        <mxCell id="156" value="1 день" style="strokeColor=#DEEDFF" parent="1" vertex="1">
          <mxGeometry x="446.50000000000244" y="701.0000000000025" width="80.00000000000028" height="20" as="geometry" />
        </mxCell>
        <mxCell id="157" value="18.12.2023" style="strokeColor=#DEEDFF" parent="1" vertex="1">
          <mxGeometry x="526.5000000000027" y="701.0000000000025" width="80.00000000000028" height="20" as="geometry" />
        </mxCell>
        <mxCell id="158" value="18.12.2023" style="strokeColor=#DEEDFF" parent="1" vertex="1">
          <mxGeometry x="606.5000000000023" y="701.0000000000027" width="80.00000000000028" height="20" as="geometry" />
        </mxCell>
        <mxCell id="159" value="18" style="strokeColor=#DEEDFF" parent="1" vertex="1">
          <mxGeometry x="86.50000000000065" y="721.0000000000025" width="40" height="20" as="geometry" />
        </mxCell>
        <mxCell id="160" value="Подготовка прод. инфраструктуры и деплой сервиса" style="align=left;strokeColor=#DEEDFF" parent="1" vertex="1">
          <mxGeometry x="126.50000000000065" y="721.0000000000025" width="319.9999999999993" height="20" as="geometry" />
        </mxCell>
        <mxCell id="161" value="1 день" style="strokeColor=#DEEDFF" parent="1" vertex="1">
          <mxGeometry x="446.5000000000024" y="721.0000000000025" width="80.00000000000028" height="20" as="geometry" />
        </mxCell>
        <mxCell id="162" value="19.12.2023" style="strokeColor=#DEEDFF" parent="1" vertex="1">
          <mxGeometry x="526.5000000000027" y="721.0000000000025" width="80.00000000000028" height="20" as="geometry" />
        </mxCell>
        <mxCell id="163" value="19.12.2023" style="strokeColor=#DEEDFF" parent="1" vertex="1">
          <mxGeometry x="606.5000000000023" y="721.0000000000027" width="80.00000000000028" height="20" as="geometry" />
        </mxCell>
        <mxCell id="164" value="19" style="strokeColor=#DEEDFF" parent="1" vertex="1">
          <mxGeometry x="86.50000000000065" y="741.0000000000028" width="40" height="20" as="geometry" />
        </mxCell>
        <mxCell id="165" value="Тестирование сервиса" style="align=left;strokeColor=#DEEDFF" parent="1" vertex="1">
          <mxGeometry x="126.50000000000065" y="741.0000000000028" width="319.9999999999993" height="20" as="geometry" />
        </mxCell>
        <mxCell id="166" value="1 день" style="strokeColor=#DEEDFF" parent="1" vertex="1">
          <mxGeometry x="446.5000000000024" y="741.0000000000027" width="80.00000000000028" height="20" as="geometry" />
        </mxCell>
        <mxCell id="167" value="19.12.2023" style="strokeColor=#DEEDFF" parent="1" vertex="1">
          <mxGeometry x="526.5000000000027" y="741.0000000000027" width="80.00000000000028" height="20" as="geometry" />
        </mxCell>
        <mxCell id="168" value="19.12.2023" style="strokeColor=#DEEDFF" parent="1" vertex="1">
          <mxGeometry x="606.5000000000023" y="741.0000000000031" width="80.00000000000028" height="20" as="geometry" />
        </mxCell>
        <mxCell id="169" value="20" style="strokeColor=#DEEDFF" parent="1" vertex="1">
          <mxGeometry x="86.50000000000136" y="761.0000000000031" width="40" height="20" as="geometry" />
        </mxCell>
        <mxCell id="170" value="Обновление документации" style="align=left;strokeColor=#DEEDFF" parent="1" vertex="1">
          <mxGeometry x="126.50000000000136" y="761.0000000000031" width="319.99999999999864" height="20" as="geometry" />
        </mxCell>
        <mxCell id="171" value="1 день" style="strokeColor=#DEEDFF" parent="1" vertex="1">
          <mxGeometry x="446.5000000000031" y="761.000000000003" width="80.00000000000028" height="20" as="geometry" />
        </mxCell>
        <mxCell id="172" value="20.12.2023" style="strokeColor=#DEEDFF" parent="1" vertex="1">
          <mxGeometry x="526.5000000000034" y="761.000000000003" width="80.00000000000028" height="20" as="geometry" />
        </mxCell>
        <mxCell id="173" value="20.12.2023" style="strokeColor=#DEEDFF" parent="1" vertex="1">
          <mxGeometry x="606.500000000003" y="761.0000000000033" width="80.00000000000028" height="20" as="geometry" />
        </mxCell>
        <mxCell id="174" value="21" style="strokeColor=#DEEDFF" parent="1" vertex="1">
          <mxGeometry x="86.50000000000139" y="781.000000000003" width="40" height="20" as="geometry" />
        </mxCell>
        <mxCell id="175" value="Презентация проекта" style="align=left;strokeColor=#DEEDFF" parent="1" vertex="1">
          <mxGeometry x="126.50000000000139" y="781.000000000003" width="319.99999999999864" height="20" as="geometry" />
        </mxCell>
        <mxCell id="176" value="2 дня" style="strokeColor=#DEEDFF" parent="1" vertex="1">
          <mxGeometry x="446.5000000000031" y="781.000000000003" width="80.00000000000028" height="20" as="geometry" />
        </mxCell>
        <mxCell id="177" value="21.12.2023" style="strokeColor=#DEEDFF" parent="1" vertex="1">
          <mxGeometry x="526.5000000000034" y="781.000000000003" width="80.00000000000028" height="20" as="geometry" />
        </mxCell>
        <mxCell id="178" value="22.12.2023" style="strokeColor=#DEEDFF" parent="1" vertex="1">
          <mxGeometry x="606.500000000003" y="781.0000000000032" width="80.00000000000028" height="20" as="geometry" />
        </mxCell>
        <mxCell id="194" value="" style="strokeColor=#DEEDFF" parent="1" vertex="1">
          <mxGeometry x="706.500000000002" y="381.00000000000387" width="20" height="420" as="geometry" />
        </mxCell>
        <mxCell id="195" value="" style="strokeColor=#DEEDFF" parent="1" vertex="1">
          <mxGeometry x="726.500000000002" y="381.00000000000387" width="20" height="420" as="geometry" />
        </mxCell>
        <mxCell id="196" value="" style="strokeColor=#DEEDFF" parent="1" vertex="1">
          <mxGeometry x="746.500000000002" y="381.00000000000387" width="20" height="420" as="geometry" />
        </mxCell>
        <mxCell id="197" value="" style="strokeColor=#DEEDFF" parent="1" vertex="1">
          <mxGeometry x="766.500000000002" y="381.00000000000387" width="20" height="420" as="geometry" />
        </mxCell>
        <mxCell id="198" value="" style="strokeColor=#2D7600;fillColor=#60a917;opacity=50;fontColor=#ffffff;" parent="1" vertex="1">
          <mxGeometry x="786.500000000002" y="381.0000000000075" width="20" height="420" as="geometry" />
        </mxCell>
        <mxCell id="199" value="" style="strokeColor=#2D7600;fillColor=#60a917;opacity=50;fontColor=#ffffff;" parent="1" vertex="1">
          <mxGeometry x="806.500000000002" y="381.0000000000075" width="20" height="420" as="geometry" />
        </mxCell>
        <mxCell id="200" value="" style="strokeColor=#DEEDFF" parent="1" vertex="1">
          <mxGeometry x="826.500000000002" y="381.0000000000075" width="20" height="420" as="geometry" />
        </mxCell>
        <mxCell id="201" value="" style="strokeColor=#DEEDFF" parent="1" vertex="1">
          <mxGeometry x="846.5000000000016" y="381.0000000000075" width="20" height="420" as="geometry" />
        </mxCell>
        <mxCell id="202" value="" style="strokeColor=#DEEDFF" parent="1" vertex="1">
          <mxGeometry x="866.5000000000016" y="381.00000000001114" width="20" height="420" as="geometry" />
        </mxCell>
        <mxCell id="203" value="" style="strokeColor=#DEEDFF" parent="1" vertex="1">
          <mxGeometry x="886.5000000000016" y="381.00000000001114" width="20" height="420" as="geometry" />
        </mxCell>
        <mxCell id="204" value="" style="strokeColor=#DEEDFF" parent="1" vertex="1">
          <mxGeometry x="906.5000000000016" y="381.00000000001114" width="20" height="420" as="geometry" />
        </mxCell>
        <mxCell id="205" value="" style="strokeColor=#2D7600;fillColor=#60a917;opacity=50;fontColor=#ffffff;" parent="1" vertex="1">
          <mxGeometry x="926.5000000000018" y="381.00000000001114" width="20" height="420" as="geometry" />
        </mxCell>
        <mxCell id="206" value="" style="strokeColor=#2D7600;fillColor=#60a917;opacity=50;fontColor=#ffffff;" parent="1" vertex="1">
          <mxGeometry x="946.5000000000018" y="381.0000000000148" width="20" height="420" as="geometry" />
        </mxCell>
        <mxCell id="207" value="" style="strokeColor=#DEEDFF" parent="1" vertex="1">
          <mxGeometry x="966.5000000000018" y="381.0000000000148" width="20" height="420" as="geometry" />
        </mxCell>
        <mxCell id="208" value="" style="strokeColor=#DEEDFF" parent="1" vertex="1">
          <mxGeometry x="986.5000000000018" y="381.0000000000148" width="20" height="420" as="geometry" />
        </mxCell>
        <mxCell id="209" value="" style="strokeColor=#DEEDFF" parent="1" vertex="1">
          <mxGeometry x="1006.5000000000018" y="381.0000000000002" width="20" height="420" as="geometry" />
        </mxCell>
        <mxCell id="210" value="" style="strokeColor=#DEEDFF" parent="1" vertex="1">
          <mxGeometry x="1026.5000000000018" y="381.00000000000387" width="20" height="420" as="geometry" />
        </mxCell>
        <mxCell id="211" value="" style="strokeColor=#DEEDFF" parent="1" vertex="1">
          <mxGeometry x="1046.5" y="381" width="20" height="420" as="geometry" />
        </mxCell>
        <mxCell id="212" value="" style="strokeColor=#2D7600;fillColor=#60a917;fontColor=#ffffff;opacity=50;" parent="1" vertex="1">
          <mxGeometry x="1066.5000000000018" y="381.00000000000387" width="20" height="420" as="geometry" />
        </mxCell>
        <mxCell id="213" value="" style="strokeColor=#2D7600;fillColor=#60a917;fontColor=#ffffff;opacity=50;" parent="1" vertex="1">
          <mxGeometry x="1086.5000000000018" y="381.0000000000148" width="20" height="420" as="geometry" />
        </mxCell>
        <mxCell id="2" value="Наименование задачи" style="fillColor=#23445D;strokeColor=#FFFFFF;strokeWidth=2;fontColor=#FFFFFF;fontStyle=1" parent="1" vertex="1">
          <mxGeometry x="126.5" y="340" width="320" height="40" as="geometry" />
        </mxCell>
        <mxCell id="3" value="" style="fillColor=#23445D;strokeColor=#FFFFFF;strokeWidth=2;fontColor=#FFFFFF;fontStyle=1" parent="1" vertex="1">
          <mxGeometry x="86.5" y="340" width="40" height="40" as="geometry" />
        </mxCell>
        <mxCell id="4" value="04 Декабря 2023" style="fillColor=#23445D;strokeColor=#FFFFFF;strokeWidth=2;fontColor=#FFFFFF;fontStyle=1" parent="1" vertex="1">
          <mxGeometry x="686.5000000000018" y="340.0000000000001" width="140" height="20" as="geometry" />
        </mxCell>
        <mxCell id="5" value="П" style="fillColor=#a20025;strokeColor=#6F0000;strokeWidth=2;fontColor=#ffffff;fontStyle=1" parent="1" vertex="1">
          <mxGeometry x="686.5000000000018" y="360.0000000000001" width="20" height="20" as="geometry" />
        </mxCell>
        <mxCell id="6" value="В" style="fillColor=#23445D;strokeColor=#FFFFFF;strokeWidth=2;fontColor=#FFFFFF;fontStyle=1" parent="1" vertex="1">
          <mxGeometry x="706.5000000000018" y="360.0000000000001" width="20" height="20" as="geometry" />
        </mxCell>
        <mxCell id="7" value="С" style="fillColor=#23445D;strokeColor=#FFFFFF;strokeWidth=2;fontColor=#FFFFFF;fontStyle=1" parent="1" vertex="1">
          <mxGeometry x="726.5000000000018" y="360.0000000000001" width="20" height="20" as="geometry" />
        </mxCell>
        <mxCell id="8" value="Ч" style="fillColor=#23445D;strokeColor=#FFFFFF;strokeWidth=2;fontColor=#FFFFFF;fontStyle=1" parent="1" vertex="1">
          <mxGeometry x="746.5000000000018" y="360.0000000000001" width="20" height="20" as="geometry" />
        </mxCell>
        <mxCell id="9" value="П" style="fillColor=#23445D;strokeColor=#FFFFFF;strokeWidth=2;fontColor=#FFFFFF;fontStyle=1" parent="1" vertex="1">
          <mxGeometry x="766.5000000000016" y="360.0000000000001" width="20" height="20" as="geometry" />
        </mxCell>
        <mxCell id="10" value="С" style="fillColor=#23445D;strokeColor=#FFFFFF;strokeWidth=2;fontColor=#FFFFFF;fontStyle=1" parent="1" vertex="1">
          <mxGeometry x="786.5000000000016" y="360.0000000000001" width="20" height="20" as="geometry" />
        </mxCell>
        <mxCell id="11" value="В" style="fillColor=#23445D;strokeColor=#FFFFFF;strokeWidth=2;fontColor=#FFFFFF;fontStyle=1" parent="1" vertex="1">
          <mxGeometry x="806.5000000000016" y="360.0000000000001" width="20" height="20" as="geometry" />
        </mxCell>
        <mxCell id="12" value="Продол-&#xa;жительность" style="fillColor=#23445D;strokeColor=#FFFFFF;strokeWidth=2;fontColor=#FFFFFF;fontStyle=1" parent="1" vertex="1">
          <mxGeometry x="446.50000000000176" y="340.00000000000006" width="80.00000000000006" height="40.00000000000001" as="geometry" />
        </mxCell>
        <mxCell id="13" value="Начало" style="fillColor=#23445D;strokeColor=#FFFFFF;strokeWidth=2;fontColor=#FFFFFF;fontStyle=1" parent="1" vertex="1">
          <mxGeometry x="526.5000000000018" y="340.00000000000006" width="80.00000000000006" height="40.00000000000001" as="geometry" />
        </mxCell>
        <mxCell id="14" value="Окончание" style="fillColor=#23445D;strokeColor=#FFFFFF;strokeWidth=2;fontColor=#FFFFFF;fontStyle=1" parent="1" vertex="1">
          <mxGeometry x="606.5000000000019" y="340.0000000000001" width="80.00000000000006" height="40.00000000000001" as="geometry" />
        </mxCell>
        <mxCell id="15" value="11 Декабря 2023" style="fillColor=#23445D;strokeColor=#FFFFFF;strokeWidth=2;fontColor=#FFFFFF;fontStyle=1" parent="1" vertex="1">
          <mxGeometry x="826.5000000000018" y="340.0000000000001" width="140" height="20" as="geometry" />
        </mxCell>
        <mxCell id="16" value="П" style="fillColor=#23445D;strokeColor=#FFFFFF;strokeWidth=2;fontColor=#FFFFFF;fontStyle=1" parent="1" vertex="1">
          <mxGeometry x="826.5000000000018" y="360.0000000000001" width="20" height="20" as="geometry" />
        </mxCell>
        <mxCell id="17" value="В" style="fillColor=#23445D;strokeColor=#FFFFFF;strokeWidth=2;fontColor=#FFFFFF;fontStyle=1" parent="1" vertex="1">
          <mxGeometry x="846.5000000000018" y="360.0000000000001" width="20" height="20" as="geometry" />
        </mxCell>
        <mxCell id="18" value="С" style="fillColor=#a20025;strokeColor=#6F0000;strokeWidth=2;fontColor=#ffffff;fontStyle=1" parent="1" vertex="1">
          <mxGeometry x="866.5000000000018" y="360.0000000000001" width="20" height="20" as="geometry" />
        </mxCell>
        <mxCell id="19" value="Ч" style="fillColor=#23445D;strokeColor=#FFFFFF;strokeWidth=2;fontColor=#FFFFFF;fontStyle=1" parent="1" vertex="1">
          <mxGeometry x="886.5000000000018" y="360.0000000000001" width="20" height="20" as="geometry" />
        </mxCell>
        <mxCell id="20" value="П" style="fillColor=#23445D;strokeColor=#FFFFFF;strokeWidth=2;fontColor=#FFFFFF;fontStyle=1" parent="1" vertex="1">
          <mxGeometry x="906.5000000000016" y="360.0000000000001" width="20" height="20" as="geometry" />
        </mxCell>
        <mxCell id="21" value="С" style="fillColor=#23445D;strokeColor=#FFFFFF;strokeWidth=2;fontColor=#FFFFFF;fontStyle=1" parent="1" vertex="1">
          <mxGeometry x="926.5000000000016" y="360.0000000000001" width="20" height="20" as="geometry" />
        </mxCell>
        <mxCell id="22" value="В" style="fillColor=#23445D;strokeColor=#FFFFFF;strokeWidth=2;fontColor=#FFFFFF;fontStyle=1" parent="1" vertex="1">
          <mxGeometry x="946.5000000000016" y="360.0000000000001" width="20" height="20" as="geometry" />
        </mxCell>
        <mxCell id="23" value="18 Декабря 2023" style="fillColor=#23445D;strokeColor=#FFFFFF;strokeWidth=2;fontColor=#FFFFFF;fontStyle=1" parent="1" vertex="1">
          <mxGeometry x="966.5000000000018" y="340.00000000000006" width="140" height="20" as="geometry" />
        </mxCell>
        <mxCell id="24" value="П" style="fillColor=#23445D;strokeColor=#FFFFFF;strokeWidth=2;fontColor=#FFFFFF;fontStyle=1" parent="1" vertex="1">
          <mxGeometry x="966.5000000000018" y="360.00000000000006" width="20" height="20" as="geometry" />
        </mxCell>
        <mxCell id="25" value="В" style="fillColor=#23445D;strokeColor=#FFFFFF;strokeWidth=2;fontColor=#FFFFFF;fontStyle=1" parent="1" vertex="1">
          <mxGeometry x="986.5000000000018" y="360.00000000000006" width="20" height="20" as="geometry" />
        </mxCell>
        <mxCell id="26" value="С" style="fillColor=#a20025;strokeColor=#6F0000;strokeWidth=2;fontColor=#ffffff;fontStyle=1" parent="1" vertex="1">
          <mxGeometry x="1006.5000000000018" y="360.00000000000006" width="20" height="20" as="geometry" />
        </mxCell>
        <mxCell id="27" value="Ч" style="fillColor=#23445D;strokeColor=#FFFFFF;strokeWidth=2;fontColor=#FFFFFF;fontStyle=1" parent="1" vertex="1">
          <mxGeometry x="1026.5000000000018" y="360.00000000000006" width="20" height="20" as="geometry" />
        </mxCell>
        <mxCell id="28" value="П" style="fillColor=#a20025;strokeColor=#6F0000;strokeWidth=2;fontColor=#ffffff;fontStyle=1" parent="1" vertex="1">
          <mxGeometry x="1046.5000000000016" y="360.00000000000006" width="20" height="20" as="geometry" />
        </mxCell>
        <mxCell id="29" value="С" style="fillColor=#23445D;strokeColor=#FFFFFF;strokeWidth=2;fontColor=#FFFFFF;fontStyle=1" parent="1" vertex="1">
          <mxGeometry x="1066.5000000000016" y="360.00000000000006" width="20" height="20" as="geometry" />
        </mxCell>
        <mxCell id="30" value="В" style="fillColor=#23445D;strokeColor=#FFFFFF;strokeWidth=2;fontColor=#FFFFFF;fontStyle=1" parent="1" vertex="1">
          <mxGeometry x="1086.5000000000016" y="360.00000000000006" width="20" height="20" as="geometry" />
        </mxCell>
        <mxCell id="242" value="" style="shape=mxgraph.flowchart.process;fillColor=#AE4132;strokeColor=#000000;strokeWidth=2;opacity=50" parent="1" vertex="1">
          <mxGeometry x="686.5" y="400" width="100" height="20" as="geometry" />
        </mxCell>
        <mxCell id="243" value="" style="shape=mxgraph.arrows.bent_right_arrow;fillColor=#AE4132;strokeColor=none;strokeWidth=2;direction=south" parent="1" vertex="1">
          <mxGeometry x="706.500000000002" y="429.99999999999966" width="10.000000000000341" height="9.99999999999983" as="geometry" />
        </mxCell>
        <mxCell id="244" value="" style="shape=mxgraph.flowchart.process;fillColor=#AE4132;strokeColor=none;strokeWidth=2;opacity=50" parent="1" vertex="1">
          <mxGeometry x="687.5000000000032" y="419.9999999999997" width="20" height="19.99999999999983" as="geometry" />
        </mxCell>
        <mxCell id="245" value="" style="shape=mxgraph.flowchart.process;fillColor=#AE4132;strokeColor=none;strokeWidth=2;opacity=50" parent="1" vertex="1">
          <mxGeometry x="706.5" y="440" width="20" height="40" as="geometry" />
        </mxCell>
        <mxCell id="249" value="" style="shape=mxgraph.arrows.bent_right_arrow;fillColor=#AE4132;strokeColor=none;strokeWidth=2;direction=south" parent="1" vertex="1">
          <mxGeometry x="727.500000000001" y="468.99999999999943" width="10.000000000000341" height="9.99999999999983" as="geometry" />
        </mxCell>
        <mxCell id="252" value="" style="shape=mxgraph.flowchart.process;fillColor=#AE4132;strokeColor=none;strokeWidth=2;opacity=50" parent="1" vertex="1">
          <mxGeometry x="746.5" y="500" width="21" height="20" as="geometry" />
        </mxCell>
        <mxCell id="253" value="" style="shape=mxgraph.arrows.bent_right_arrow;fillColor=#AE4132;strokeColor=none;strokeWidth=2;direction=south" parent="1" vertex="1">
          <mxGeometry x="746.500000000002" y="489.99999999999983" width="10.000000000000341" height="9.99999999999983" as="geometry" />
        </mxCell>
        <mxCell id="254" value="" style="shape=mxgraph.flowchart.process;fillColor=#e51400;strokeColor=#B20000;strokeWidth=2;opacity=50;fontColor=#ffffff;" parent="1" vertex="1">
          <mxGeometry x="686.5" y="381" width="380" height="20" as="geometry" />
        </mxCell>
        <mxCell id="257" value="" style="shape=mxgraph.flowchart.process;fillColor=#AE4132;strokeColor=none;strokeWidth=2;opacity=50" parent="1" vertex="1">
          <mxGeometry x="826.5" y="560" width="20" height="40" as="geometry" />
        </mxCell>
        <mxCell id="258" value="" style="shape=mxgraph.flowchart.process;fillColor=#AE4132;strokeColor=none;strokeWidth=2;opacity=50" parent="1" vertex="1">
          <mxGeometry x="845.5" y="600" width="21" height="20" as="geometry" />
        </mxCell>
        <mxCell id="263" value="" style="shape=mxgraph.flowchart.process;fillColor=#AE4132;strokeColor=none;strokeWidth=2;opacity=50" parent="1" vertex="1">
          <mxGeometry x="967.5" y="681" width="20" height="40" as="geometry" />
        </mxCell>
        <mxCell id="270" value="" style="shape=mxgraph.arrows.bent_right_arrow;fillColor=#AE4132;strokeColor=none;strokeWidth=2;direction=south" parent="1" vertex="1">
          <mxGeometry x="846.4999999999998" y="590.0000000000019" width="10.000000000000341" height="9.99999999999983" as="geometry" />
        </mxCell>
        <mxCell id="271" value="" style="shape=mxgraph.arrows.bent_right_arrow;fillColor=#AE4132;strokeColor=none;strokeWidth=2;direction=south" parent="1" vertex="1">
          <mxGeometry x="866.5" y="610.0000000000019" width="10.000000000000341" height="9.99999999999983" as="geometry" />
        </mxCell>
        <mxCell id="275" value="" style="shape=mxgraph.arrows.bent_right_arrow;fillColor=#AE4132;strokeColor=none;strokeWidth=2;direction=south" parent="1" vertex="1">
          <mxGeometry x="987.5000000000036" y="711.000000000003" width="10.000000000000341" height="9.99999999999983" as="geometry" />
        </mxCell>
        <mxCell id="_caUWjipLXWsvfCWarUt-285" value="" style="shape=mxgraph.flowchart.process;fillColor=#AE4132;strokeColor=none;strokeWidth=2;opacity=50" vertex="1" parent="1">
          <mxGeometry x="726.5000000000018" y="480.00000000000085" width="20" height="19.99999999999983" as="geometry" />
        </mxCell>
        <mxCell id="_caUWjipLXWsvfCWarUt-286" value="" style="shape=mxgraph.flowchart.process;fillColor=#AE4132;strokeColor=none;strokeWidth=2;opacity=50" vertex="1" parent="1">
          <mxGeometry x="765" y="520" width="21" height="20" as="geometry" />
        </mxCell>
        <mxCell id="_caUWjipLXWsvfCWarUt-287" value="" style="shape=mxgraph.arrows.bent_right_arrow;fillColor=#AE4132;strokeColor=none;strokeWidth=2;direction=south" vertex="1" parent="1">
          <mxGeometry x="766.500000000002" y="509.99999999999983" width="10.000000000000341" height="9.99999999999983" as="geometry" />
        </mxCell>
        <mxCell id="_caUWjipLXWsvfCWarUt-288" value="" style="shape=mxgraph.flowchart.process;fillColor=#AE4132;strokeColor=#000000;strokeWidth=2;opacity=50" vertex="1" parent="1">
          <mxGeometry x="827" y="540" width="100" height="20" as="geometry" />
        </mxCell>
        <mxCell id="_caUWjipLXWsvfCWarUt-291" value="" style="shape=mxgraph.flowchart.process;fillColor=#AE4132;strokeColor=none;strokeWidth=2;opacity=50" vertex="1" parent="1">
          <mxGeometry x="866.5" y="620" width="40" height="20" as="geometry" />
        </mxCell>
        <mxCell id="_caUWjipLXWsvfCWarUt-292" value="" style="shape=mxgraph.flowchart.process;fillColor=#AE4132;strokeColor=#000000;strokeWidth=2;opacity=50" vertex="1" parent="1">
          <mxGeometry x="967" y="661" width="100" height="20" as="geometry" />
        </mxCell>
        <mxCell id="_caUWjipLXWsvfCWarUt-293" value="" style="shape=mxgraph.flowchart.process;fillColor=#AE4132;strokeColor=none;strokeWidth=2;opacity=50" vertex="1" parent="1">
          <mxGeometry x="905.5" y="641" width="21" height="20" as="geometry" />
        </mxCell>
        <mxCell id="_caUWjipLXWsvfCWarUt-294" value="" style="shape=mxgraph.arrows.bent_right_arrow;fillColor=#AE4132;strokeColor=none;strokeWidth=2;direction=south" vertex="1" parent="1">
          <mxGeometry x="907.4999999999998" y="631.0000000000019" width="10.000000000000341" height="9.99999999999983" as="geometry" />
        </mxCell>
        <mxCell id="_caUWjipLXWsvfCWarUt-295" value="" style="shape=mxgraph.flowchart.process;fillColor=#AE4132;strokeColor=none;strokeWidth=2;opacity=50" vertex="1" parent="1">
          <mxGeometry x="987.5" y="721" width="20" height="40" as="geometry" />
        </mxCell>
        <mxCell id="_caUWjipLXWsvfCWarUt-296" value="" style="shape=mxgraph.arrows.bent_right_arrow;fillColor=#AE4132;strokeColor=none;strokeWidth=2;direction=south" vertex="1" parent="1">
          <mxGeometry x="1007.5000000000036" y="751.000000000003" width="10.000000000000341" height="9.99999999999983" as="geometry" />
        </mxCell>
        <mxCell id="_caUWjipLXWsvfCWarUt-297" value="" style="shape=mxgraph.flowchart.process;fillColor=#AE4132;strokeColor=none;strokeWidth=2;opacity=50" vertex="1" parent="1">
          <mxGeometry x="1006.5" y="761" width="21" height="20" as="geometry" />
        </mxCell>
        <mxCell id="_caUWjipLXWsvfCWarUt-298" value="" style="shape=mxgraph.arrows.bent_right_arrow;fillColor=#AE4132;strokeColor=none;strokeWidth=2;direction=south" vertex="1" parent="1">
          <mxGeometry x="1028.5" y="772.0000000000019" width="10.000000000000341" height="9.99999999999983" as="geometry" />
        </mxCell>
        <mxCell id="_caUWjipLXWsvfCWarUt-299" value="" style="shape=mxgraph.flowchart.process;fillColor=#AE4132;strokeColor=none;strokeWidth=2;opacity=50" vertex="1" parent="1">
          <mxGeometry x="1026.5" y="781" width="40" height="20" as="geometry" />
        </mxCell>
        <mxCell id="_caUWjipLXWsvfCWarUt-302" value="Начало проекта" style="fillColor=#a20025;strokeColor=#6F0000;strokeWidth=2;fontColor=#ffffff;fontStyle=1;horizontal=0;" vertex="1" parent="1">
          <mxGeometry x="687.5" y="200" width="20" height="130" as="geometry" />
        </mxCell>
        <mxCell id="_caUWjipLXWsvfCWarUt-305" value="" style="endArrow=none;html=1;rounded=0;entryX=0.535;entryY=1.002;entryDx=0;entryDy=0;entryPerimeter=0;endFill=0;dashed=1;" edge="1" parent="1" source="5" target="_caUWjipLXWsvfCWarUt-302">
          <mxGeometry width="50" height="50" relative="1" as="geometry">
            <mxPoint x="740" y="380" as="sourcePoint" />
            <mxPoint x="790" y="330" as="targetPoint" />
          </mxGeometry>
        </mxCell>
        <mxCell id="_caUWjipLXWsvfCWarUt-306" value="сессия с заказчиком" style="fillColor=#a20025;strokeColor=#6F0000;strokeWidth=2;fontColor=#ffffff;fontStyle=1;horizontal=0;" vertex="1" parent="1">
          <mxGeometry x="867" y="200" width="20" height="130" as="geometry" />
        </mxCell>
        <mxCell id="_caUWjipLXWsvfCWarUt-307" value="код фриз" style="fillColor=#a20025;strokeColor=#6F0000;strokeWidth=2;fontColor=#ffffff;fontStyle=1;horizontal=0;" vertex="1" parent="1">
          <mxGeometry x="1006.5" y="200" width="20" height="130" as="geometry" />
        </mxCell>
        <mxCell id="_caUWjipLXWsvfCWarUt-308" value="презентация проекта" style="fillColor=#a20025;strokeColor=#6F0000;strokeWidth=2;fontColor=#ffffff;fontStyle=1;horizontal=0;" vertex="1" parent="1">
          <mxGeometry x="1046.5" y="200" width="20" height="130" as="geometry" />
        </mxCell>
        <mxCell id="_caUWjipLXWsvfCWarUt-309" value="" style="endArrow=none;html=1;rounded=0;entryX=0.535;entryY=1.002;entryDx=0;entryDy=0;entryPerimeter=0;endFill=0;dashed=1;" edge="1" parent="1">
          <mxGeometry width="50" height="50" relative="1" as="geometry">
            <mxPoint x="876.5" y="360" as="sourcePoint" />
            <mxPoint x="877.5" y="330" as="targetPoint" />
          </mxGeometry>
        </mxCell>
        <mxCell id="_caUWjipLXWsvfCWarUt-310" value="" style="endArrow=none;html=1;rounded=0;entryX=0.535;entryY=1.002;entryDx=0;entryDy=0;entryPerimeter=0;endFill=0;dashed=1;" edge="1" parent="1">
          <mxGeometry width="50" height="50" relative="1" as="geometry">
            <mxPoint x="1016" y="360" as="sourcePoint" />
            <mxPoint x="1017" y="330" as="targetPoint" />
          </mxGeometry>
        </mxCell>
        <mxCell id="_caUWjipLXWsvfCWarUt-311" value="" style="endArrow=none;html=1;rounded=0;entryX=0.535;entryY=1.002;entryDx=0;entryDy=0;entryPerimeter=0;endFill=0;dashed=1;" edge="1" parent="1">
          <mxGeometry width="50" height="50" relative="1" as="geometry">
            <mxPoint x="1056" y="360" as="sourcePoint" />
            <mxPoint x="1057" y="330" as="targetPoint" />
          </mxGeometry>
        </mxCell>
        <mxCell id="_caUWjipLXWsvfCWarUt-320" value="" style="triangle;whiteSpace=wrap;html=1;rotation=270;aspect=fixed;fillColor=#f5f5f5;fontColor=#333333;strokeColor=#666666;" vertex="1" parent="1">
          <mxGeometry x="476.5" y="221.5" width="10" height="10" as="geometry" />
        </mxCell>
        <mxCell id="_caUWjipLXWsvfCWarUt-321" value="" style="ellipse;whiteSpace=wrap;html=1;aspect=fixed;fillColor=#f5f5f5;fontColor=#333333;strokeColor=#666666;" vertex="1" parent="1">
          <mxGeometry x="476.5" y="241.5" width="10" height="10" as="geometry" />
        </mxCell>
        <mxCell id="_caUWjipLXWsvfCWarUt-322" value="" style="whiteSpace=wrap;html=1;aspect=fixed;fillColor=#f5f5f5;fontColor=#333333;strokeColor=#666666;" vertex="1" parent="1">
          <mxGeometry x="476.5" y="278.5" width="10" height="10" as="geometry" />
        </mxCell>
        <mxCell id="_caUWjipLXWsvfCWarUt-323" value="" style="rhombus;whiteSpace=wrap;html=1;aspect=fixed;fillColor=#f5f5f5;fontColor=#333333;strokeColor=#666666;" vertex="1" parent="1">
          <mxGeometry x="476.5" y="298.5" width="10" height="10" as="geometry" />
        </mxCell>
        <mxCell id="_caUWjipLXWsvfCWarUt-324" value="Технический писатель" style="text;html=1;strokeColor=none;fillColor=none;align=left;verticalAlign=middle;whiteSpace=wrap;rounded=0;fontSize=12;" vertex="1" parent="1">
          <mxGeometry x="506.5" y="294" width="150" height="19" as="geometry" />
        </mxCell>
        <mxCell id="_caUWjipLXWsvfCWarUt-325" value="ML инженер" style="text;html=1;strokeColor=none;fillColor=none;align=left;verticalAlign=middle;whiteSpace=wrap;rounded=0;fontSize=12;" vertex="1" parent="1">
          <mxGeometry x="506.5" y="275" width="150" height="19" as="geometry" />
        </mxCell>
        <mxCell id="_caUWjipLXWsvfCWarUt-326" value="DevOps инженер" style="text;html=1;strokeColor=none;fillColor=none;align=left;verticalAlign=middle;whiteSpace=wrap;rounded=0;fontSize=12;" vertex="1" parent="1">
          <mxGeometry x="506.5" y="237" width="150" height="19" as="geometry" />
        </mxCell>
        <mxCell id="_caUWjipLXWsvfCWarUt-327" value="Менеджер проекта" style="text;html=1;strokeColor=none;fillColor=none;align=left;verticalAlign=middle;whiteSpace=wrap;rounded=0;fontSize=12;" vertex="1" parent="1">
          <mxGeometry x="506.5" y="217" width="150" height="19" as="geometry" />
        </mxCell>
        <mxCell id="_caUWjipLXWsvfCWarUt-329" value="" style="triangle;whiteSpace=wrap;html=1;rotation=270;aspect=fixed;fillColor=#f5f5f5;fontColor=#333333;strokeColor=#666666;" vertex="1" parent="1">
          <mxGeometry x="691.5" y="425" width="10" height="10" as="geometry" />
        </mxCell>
        <mxCell id="_caUWjipLXWsvfCWarUt-330" value="" style="whiteSpace=wrap;html=1;aspect=fixed;fillColor=#f5f5f5;fontColor=#333333;strokeColor=#666666;" vertex="1" parent="1">
          <mxGeometry x="711.5" y="445" width="10" height="10" as="geometry" />
        </mxCell>
        <mxCell id="_caUWjipLXWsvfCWarUt-331" value="" style="triangle;whiteSpace=wrap;html=1;rotation=270;aspect=fixed;fillColor=#f5f5f5;fontColor=#333333;strokeColor=#666666;" vertex="1" parent="1">
          <mxGeometry x="711.5" y="465" width="10" height="10" as="geometry" />
        </mxCell>
        <mxCell id="_caUWjipLXWsvfCWarUt-332" value="" style="triangle;whiteSpace=wrap;html=1;rotation=270;aspect=fixed;fillColor=#f5f5f5;fontColor=#333333;strokeColor=#666666;" vertex="1" parent="1">
          <mxGeometry x="726.5" y="480" width="10" height="10" as="geometry" />
        </mxCell>
        <mxCell id="_caUWjipLXWsvfCWarUt-333" value="" style="triangle;whiteSpace=wrap;html=1;rotation=270;aspect=fixed;fillColor=#f5f5f5;fontColor=#333333;strokeColor=#666666;" vertex="1" parent="1">
          <mxGeometry x="751.5" y="505" width="10" height="10" as="geometry" />
        </mxCell>
        <mxCell id="_caUWjipLXWsvfCWarUt-334" value="" style="triangle;whiteSpace=wrap;html=1;rotation=270;aspect=fixed;fillColor=#f5f5f5;fontColor=#333333;strokeColor=#666666;" vertex="1" parent="1">
          <mxGeometry x="771.5" y="525" width="10" height="10" as="geometry" />
        </mxCell>
        <mxCell id="_caUWjipLXWsvfCWarUt-335" value="" style="whiteSpace=wrap;html=1;aspect=fixed;fillColor=#f5f5f5;fontColor=#333333;strokeColor=#666666;" vertex="1" parent="1">
          <mxGeometry x="736.5" y="490" width="10" height="10" as="geometry" />
        </mxCell>
        <mxCell id="_caUWjipLXWsvfCWarUt-336" value="" style="whiteSpace=wrap;html=1;aspect=fixed;fillColor=#f5f5f5;fontColor=#333333;strokeColor=#666666;" vertex="1" parent="1">
          <mxGeometry x="831.5" y="565" width="10" height="10" as="geometry" />
        </mxCell>
        <mxCell id="_caUWjipLXWsvfCWarUt-338" value="QA инженер" style="text;html=1;strokeColor=none;fillColor=none;align=left;verticalAlign=middle;whiteSpace=wrap;rounded=0;fontSize=12;" vertex="1" parent="1">
          <mxGeometry x="506.5" y="256" width="150" height="19" as="geometry" />
        </mxCell>
        <mxCell id="_caUWjipLXWsvfCWarUt-344" value="" style="ellipse;whiteSpace=wrap;html=1;fillColor=#f5f5f5;fontColor=#333333;strokeColor=#666666;" vertex="1" parent="1">
          <mxGeometry x="478.5" y="260.5" width="6" height="10" as="geometry" />
        </mxCell>
        <mxCell id="_caUWjipLXWsvfCWarUt-345" value="" style="ellipse;whiteSpace=wrap;html=1;fillColor=#f5f5f5;fontColor=#333333;strokeColor=#666666;" vertex="1" parent="1">
          <mxGeometry x="833.5" y="585" width="6" height="10" as="geometry" />
        </mxCell>
        <mxCell id="_caUWjipLXWsvfCWarUt-346" value="" style="rhombus;whiteSpace=wrap;html=1;aspect=fixed;fillColor=#f5f5f5;fontColor=#333333;strokeColor=#666666;" vertex="1" parent="1">
          <mxGeometry x="851.5" y="605" width="10" height="10" as="geometry" />
        </mxCell>
        <mxCell id="_caUWjipLXWsvfCWarUt-347" value="" style="ellipse;whiteSpace=wrap;html=1;aspect=fixed;fillColor=#f5f5f5;fontColor=#333333;strokeColor=#666666;" vertex="1" parent="1">
          <mxGeometry x="871.5" y="626" width="10" height="10" as="geometry" />
        </mxCell>
        <mxCell id="_caUWjipLXWsvfCWarUt-348" value="" style="whiteSpace=wrap;html=1;aspect=fixed;fillColor=#f5f5f5;fontColor=#333333;strokeColor=#666666;" vertex="1" parent="1">
          <mxGeometry x="911" y="646" width="10" height="10" as="geometry" />
        </mxCell>
        <mxCell id="_caUWjipLXWsvfCWarUt-350" value="" style="whiteSpace=wrap;html=1;aspect=fixed;fillColor=#f5f5f5;fontColor=#333333;strokeColor=#666666;" vertex="1" parent="1">
          <mxGeometry x="972.5" y="686" width="10" height="10" as="geometry" />
        </mxCell>
        <mxCell id="_caUWjipLXWsvfCWarUt-351" value="" style="ellipse;whiteSpace=wrap;html=1;fillColor=#f5f5f5;fontColor=#333333;strokeColor=#666666;" vertex="1" parent="1">
          <mxGeometry x="973.5" y="706" width="6" height="10" as="geometry" />
        </mxCell>
        <mxCell id="_caUWjipLXWsvfCWarUt-352" value="" style="ellipse;whiteSpace=wrap;html=1;aspect=fixed;fillColor=#f5f5f5;fontColor=#333333;strokeColor=#666666;" vertex="1" parent="1">
          <mxGeometry x="986.5" y="721" width="10" height="10" as="geometry" />
        </mxCell>
        <mxCell id="_caUWjipLXWsvfCWarUt-353" value="" style="whiteSpace=wrap;html=1;aspect=fixed;fillColor=#f5f5f5;fontColor=#333333;strokeColor=#666666;" vertex="1" parent="1">
          <mxGeometry x="997.5" y="731" width="10" height="10" as="geometry" />
        </mxCell>
        <mxCell id="_caUWjipLXWsvfCWarUt-354" value="" style="whiteSpace=wrap;html=1;aspect=fixed;fillColor=#f5f5f5;fontColor=#333333;strokeColor=#666666;" vertex="1" parent="1">
          <mxGeometry x="891.5" y="626" width="10" height="10" as="geometry" />
        </mxCell>
        <mxCell id="_caUWjipLXWsvfCWarUt-355" value="" style="ellipse;whiteSpace=wrap;html=1;fillColor=#f5f5f5;fontColor=#333333;strokeColor=#666666;" vertex="1" parent="1">
          <mxGeometry x="993.5" y="746" width="6" height="10" as="geometry" />
        </mxCell>
        <mxCell id="_caUWjipLXWsvfCWarUt-356" value="" style="rhombus;whiteSpace=wrap;html=1;aspect=fixed;fillColor=#f5f5f5;fontColor=#333333;strokeColor=#666666;" vertex="1" parent="1">
          <mxGeometry x="1011.5" y="766" width="10" height="10" as="geometry" />
        </mxCell>
        <mxCell id="_caUWjipLXWsvfCWarUt-357" value="" style="triangle;whiteSpace=wrap;html=1;rotation=270;aspect=fixed;fillColor=#f5f5f5;fontColor=#333333;strokeColor=#666666;" vertex="1" parent="1">
          <mxGeometry x="1051.5" y="786" width="10" height="10" as="geometry" />
        </mxCell>
        <mxCell id="_caUWjipLXWsvfCWarUt-359" value="" style="triangle;whiteSpace=wrap;html=1;rotation=270;aspect=fixed;fillColor=#f5f5f5;fontColor=#333333;strokeColor=#666666;" vertex="1" parent="1">
          <mxGeometry x="1031.5" y="786" width="10" height="10" as="geometry" />
        </mxCell>
        <mxCell id="_caUWjipLXWsvfCWarUt-361" value="Диаграмма Ганта по проекту" style="text;html=1;strokeColor=none;fillColor=none;align=center;verticalAlign=middle;whiteSpace=wrap;rounded=0;fontSize=17;" vertex="1" parent="1">
          <mxGeometry x="86.5" y="231.5" width="340" height="68.5" as="geometry" />
        </mxCell>
      </root>
    </mxGraphModel>
  </diagram>
</mxfile>
